<svg width="144" height="144" viewBox="0 0 144 144" fill="none" xmlns="http://www.w3.org/2000/svg">
<path d="M75.457 19.2294C63.0618 24.6887 52.3188 32.6087 42.2231 43.0403C32.1273 53.4718 24.0209 65.347 19.4079 76.9872C18.5297 79.1776 18.2871 81.6445 21.3031 82.6105C23.752 83.3965 86.4646 105.8 109.278 113.332C110.047 113.587 110.874 113.62 111.662 113.427C112.449 113.233 113.166 112.821 113.73 112.238C114.295 111.655 114.683 110.925 114.85 110.132C115.018 109.338 114.958 108.513 114.678 107.752L81.1029 21.055C80.3622 19.1377 78.2801 17.9843 75.457 19.2294Z" fill="#BFAA3B" stroke="#1E272D" stroke-miterlimit="10"/>
<path d="M76.7598 8.77903C62.9662 15.0222 48.1698 24.8366 36.1034 37.3043C24.037 49.772 14.6398 64.4506 8.78025 78.7863C8.27139 80.0586 7.47925 82.5994 9.3799 83.532L15.8864 86.1868C18.2318 86.9515 19.1099 86.0442 20.3115 84.8026C20.6481 84.4549 20.9239 83.7811 21.2568 82.9783C26.985 69.3758 35.1804 56.9507 45.4294 46.3301C56.1025 35.3021 69.3684 26.2605 81.2691 20.9622C82.2161 20.528 82.7438 20.2861 83.0615 19.9577C84.2988 18.6793 85.4389 18.3528 84.3084 15.5202L81.4669 9.09402C80.6791 7.57527 78.4264 8.02897 76.7598 8.77903Z" fill="#704A13" stroke="#704A13" stroke-miterlimit="10"/>
<path d="M57.4519 78.2518C60.7751 74.818 60.6855 69.3404 57.2518 66.0172C53.818 62.694 48.3404 62.7836 45.0172 66.2173C41.694 69.6511 41.7836 75.1287 45.2174 78.4519C48.6511 81.7751 54.1287 81.6855 57.4519 78.2518Z" fill="#C4452B"/>
<path d="M84.4519 54.2518C87.7751 50.818 87.6855 45.3404 84.2518 42.0172C80.818 38.694 75.3404 38.7836 72.0172 42.2173C68.694 45.6511 68.7836 51.1287 72.2174 54.4519C75.6511 57.7751 81.1287 57.6855 84.4519 54.2518Z" fill="#C4452B"/>
<path d="M89.4519 96.2518C92.7751 92.818 92.6855 87.3404 89.2518 84.0172C85.818 80.694 80.3404 80.7836 77.0172 84.2173C73.694 87.6511 73.7836 93.1287 77.2174 96.4519C80.6511 99.7751 86.1287 99.6855 89.4519 96.2518Z" fill="#C4452B"/>
</svg>
