<svg width="33" height="39" viewBox="0 0 33 39" fill="none" xmlns="http://www.w3.org/2000/svg">
<path d="M9.99375 11.7C9.84777 11.5074 9.76248 11.2757 9.74875 11.0344C9.73502 10.7931 9.79347 10.5532 9.91665 10.3453C10.0398 10.1374 10.2222 9.97091 10.4404 9.86704C10.6586 9.76318 10.9028 9.72668 11.1418 9.76219C11.4616 9.80809 11.75 9.97905 11.9438 10.2375L17.0625 17.0625V1.21875C17.0625 0.895517 17.1909 0.585524 17.4195 0.356964C17.648 0.128404 17.958 0 18.2812 0C18.6045 0 18.9145 0.128404 19.143 0.356964C19.3716 0.585524 19.5 0.895517 19.5 1.21875V17.0625L24.6188 10.2375C24.7639 10.0458 24.9625 9.90116 25.1896 9.82184C25.4166 9.74252 25.662 9.73201 25.895 9.79163C26.128 9.85124 26.3382 9.97833 26.4993 10.157C26.6603 10.3356 26.7651 10.5578 26.8003 10.7957C26.823 10.9542 26.8143 11.1157 26.7745 11.2709C26.7348 11.4261 26.6649 11.5719 26.5687 11.7L19.2562 21.45C19.2416 21.4695 19.2148 21.4793 19.1978 21.4988C19.1166 21.594 19.0212 21.6763 18.915 21.7425C18.8773 21.7742 18.8364 21.8019 18.7931 21.8254C18.6342 21.9048 18.4589 21.9461 18.2812 21.9461C18.1036 21.9461 17.9283 21.9048 17.7694 21.8254C17.7261 21.8019 17.6852 21.7742 17.6475 21.7425C17.5413 21.6763 17.4459 21.594 17.3647 21.4988C17.3477 21.4793 17.3209 21.4695 17.3063 21.45L9.99375 11.7ZM11.5781 35.9531C11.5793 36.5559 11.4009 37.1453 11.0658 37.6462C10.7306 38.1472 10.2539 38.537 9.69638 38.766C9.28028 38.9374 8.83144 39.0146 8.382 38.9921C7.93257 38.9697 7.49366 38.8481 7.09672 38.6361C6.69978 38.4241 6.35463 38.127 6.086 37.766C5.81737 37.4049 5.6319 36.989 5.54287 36.5479C5.45807 36.1302 5.46184 35.6994 5.55393 35.2833C5.64602 34.8671 5.82439 34.4749 6.07751 34.1321C6.33064 33.7892 6.65288 33.5032 7.02342 33.2926C7.39396 33.082 7.80456 32.9516 8.22868 32.9096C8.65281 32.8676 9.08102 32.915 9.48566 33.0489C9.89029 33.1827 10.2623 33.4 10.5778 33.6866C10.8932 33.9732 11.145 34.3228 11.3169 34.7128C11.4888 35.1028 11.577 35.5245 11.5757 35.9507L11.5781 35.9531ZM31.0781 35.9531C31.0793 36.5559 30.9009 37.1453 30.5658 37.6462C30.2306 38.1472 29.7539 38.537 29.1964 38.766C28.7803 38.9374 28.3314 39.0146 27.882 38.9921C27.4326 38.9697 26.9937 38.8481 26.5967 38.6361C26.1998 38.4241 25.8546 38.127 25.586 37.766C25.3174 37.4049 25.1319 36.989 25.0429 36.5479C24.962 36.1319 24.9688 35.7036 25.0629 35.2905C25.157 34.8773 25.3363 34.4883 25.5894 34.1484C25.8424 33.8085 26.1637 33.5252 26.5325 33.3166C26.9014 33.108 27.3097 32.9786 27.7314 32.9369C28.1531 32.8952 28.5789 32.9419 28.9814 33.0742C29.384 33.2064 29.7546 33.4213 30.0694 33.7049C30.3842 33.9886 30.6363 34.3349 30.8096 34.7216C30.9828 35.1083 31.0735 35.5269 31.0757 35.9507L31.0781 35.9531ZM31.6875 13.4063C31.3643 13.4063 31.0543 13.5347 30.8257 13.7632C30.5972 13.9918 30.4688 14.3018 30.4688 14.625L29.25 24.375H7.53188L4.85063 8.33625C4.80352 8.05291 4.65786 7.7953 4.43934 7.60889C4.22082 7.42248 3.94348 7.31923 3.65625 7.31738H1.21875C0.895517 7.31738 0.585524 7.44578 0.356964 7.67434C0.128404 7.9029 0 8.21289 0 8.53613C0 8.85936 0.128404 9.16935 0.356964 9.39791C0.585524 9.62647 0.895517 9.75488 1.21875 9.75488H2.62275L6.10838 30.6686C6.15382 30.9541 6.30002 31.2138 6.52047 31.4007C6.74092 31.5876 7.02104 31.6894 7.31006 31.6875H29.2476C29.5708 31.6875 29.8808 31.5591 30.1093 31.3305C30.3379 31.102 30.4663 30.792 30.4663 30.4688C30.4663 30.1455 30.3379 29.8355 30.1093 29.607C29.8808 29.3784 29.5708 29.25 29.2476 29.25H8.33381L7.92675 26.8125H29.2305C29.8245 26.8123 30.398 26.5953 30.8432 26.2021C31.2885 25.8089 31.5748 25.2667 31.6485 24.6773L32.8867 14.6348C32.8867 14.3115 32.7583 14.0015 32.5298 13.773C32.3012 13.5444 31.9912 13.416 31.668 13.416L31.6875 13.4063Z" fill="#D3D3D3"/>
</svg>
