<svg width="150" height="153" viewBox="0 0 150 153" fill="none" xmlns="http://www.w3.org/2000/svg">
<path d="M127.217 68.2433C119.343 57.223 109.397 48.3222 97.1252 40.5676C84.853 32.8129 71.5734 27.3004 59.2368 25.1598C56.9133 24.7471 54.4488 25.013 54.1186 28.1626C53.8489 30.7204 44.7138 96.6852 41.9959 120.555C41.9032 121.361 42.0397 122.176 42.3899 122.908C42.7401 123.64 43.2896 124.258 43.9753 124.691C44.661 125.124 45.455 125.355 46.2662 125.357C47.0773 125.36 47.8726 125.133 48.5605 124.703L126.582 74.1429C128.308 73.0265 129.012 70.7528 127.217 68.2433Z" stroke="#BAB2E5" stroke-miterlimit="10"/>
<path d="M141.078 61.8893C132.151 49.6599 119.524 37.1777 104.856 27.9094C90.1887 18.6411 73.9014 12.437 58.6716 9.62612C57.3223 9.38759 54.6732 9.13061 54.1481 11.1816L52.877 18.0929C52.6069 20.545 53.6744 21.2195 55.135 22.1424C55.5441 22.401 56.26 22.5335 57.1138 22.6956C71.5989 25.5274 85.4351 31.0149 97.9235 38.881C110.898 47.079 122.456 58.2207 130.071 68.7898C130.69 69.6283 131.034 70.0955 131.42 70.3396C132.924 71.29 133.477 72.3394 136.019 70.6546L141.73 66.5616C143.056 65.4805 142.152 63.3677 141.078 61.8893Z" stroke="#BAB2E5" stroke-miterlimit="10"/>
<path d="M65.3871 62.1057C69.4268 64.6583 74.7708 63.4528 77.3234 59.4131C79.876 55.3735 78.6705 50.0294 74.6308 47.4768C70.5912 44.9243 65.2471 46.1298 62.6946 50.1694C60.142 54.209 61.3475 59.5531 65.3871 62.1057Z" fill="#BAB2E5"/>
<path d="M65.3871 62.1057C69.4268 64.6583 74.7708 63.4528 77.3234 59.4131C79.876 55.3735 78.6705 50.0294 74.6308 47.4768C70.5912 44.9243 65.2471 46.1298 62.6946 50.1694C60.142 54.209 61.3475 59.5531 65.3871 62.1057Z" fill="#BAB2E5"/>
<path d="M61.2327 97.2019C65.2723 99.7545 70.6164 98.549 73.169 94.5093C75.7216 90.4697 74.5161 85.1256 70.4764 82.573C66.4368 80.0205 61.0927 81.2259 58.5401 85.2656C55.9875 89.3052 57.193 94.6493 61.2327 97.2019Z" fill="#BAB2E5"/>
<path d="M91.0953 85.151C95.135 87.7036 100.479 86.4981 103.032 82.4584C105.584 78.4188 104.379 73.0747 100.339 70.5221C96.2994 67.9695 90.9554 69.175 88.4028 73.2147C85.8502 77.2543 87.0557 82.5984 91.0953 85.151Z" fill="#BAB2E5"/>
</svg>
