<svg width="224" height="105" viewBox="0 0 224 105" fill="none" xmlns="http://www.w3.org/2000/svg">
<path d="M52.9388 12.0282C47.7362 24.5333 45.4275 37.679 45.3204 52.1955C45.2134 66.7121 47.5423 80.9005 52.2372 92.5079C53.1134 94.6991 54.6402 96.6518 57.4895 95.2695C59.8042 94.1482 120.65 67.0818 142.357 56.7885C143.091 56.4418 143.711 55.8952 144.148 55.2115C144.584 54.5279 144.819 53.7349 144.825 52.9238C144.831 52.1127 144.608 51.3164 144.181 50.6264C143.755 49.9364 143.143 49.3807 142.415 49.0232L58.2845 9.45294C56.4253 8.57668 54.1225 9.17889 52.9388 12.0282Z" stroke="#BAB2E5" stroke-miterlimit="10"/>
<path d="M40.2248 3.61068C34.5512 17.6482 30.6164 34.9621 30.4885 52.3122C30.3605 69.6623 33.69 86.7702 39.343 101.189C39.8528 102.461 41.0331 104.846 43.0522 104.209L49.593 101.64C51.818 100.575 51.8274 99.3122 51.8401 97.5845C51.8437 97.1005 51.5783 96.4226 51.2652 95.6118C46.0231 81.8148 43.3791 67.1669 43.4666 52.4079C43.5797 37.0613 46.9402 21.3628 51.8961 9.31549C52.2818 8.34762 52.4967 7.80843 52.5 7.35149C52.5131 5.57241 53.1128 4.54934 50.3399 3.27968L43.8487 0.590092C42.2304 0.0346718 40.9132 1.9177 40.2248 3.61068Z" stroke="#BAB2E5" stroke-miterlimit="10"/>
<path d="M77.9473 69.9672C77.9825 65.1888 74.1374 61.2866 69.359 61.2514C64.5806 61.2161 60.6784 65.0612 60.6431 69.8396C60.6079 74.618 64.453 78.5203 69.2314 78.5555C74.0098 78.5907 77.912 74.7456 77.9473 69.9672Z" fill="#BAB2E5"/>
<path d="M86.3679 33.7797C86.4032 29.0013 82.5581 25.0991 77.7797 25.0639C73.0013 25.0286 69.099 28.8737 69.0638 33.6521C69.0286 38.4305 72.8737 42.3328 77.6521 42.368C82.4305 42.4032 86.3327 38.5581 86.3679 33.7797Z" fill="#BAB2E5"/>
<path d="M0.884 52.332H4.394C4.46333 52.9213 4.732 53.4587 5.2 53.944C5.68533 54.412 6.318 54.7847 7.098 55.062C7.878 55.322 8.75333 55.452 9.724 55.452C10.608 55.452 11.336 55.3567 11.908 55.166C12.48 54.9753 12.9047 54.7067 13.182 54.36C13.4593 54.0133 13.598 53.5973 13.598 53.112C13.598 52.644 13.4247 52.2887 13.078 52.046C12.7313 51.786 12.1853 51.578 11.44 51.422C10.6947 51.2487 9.71533 51.0753 8.502 50.902C7.54867 50.7633 6.64733 50.5727 5.798 50.33C4.94867 50.07 4.19467 49.7407 3.536 49.342C2.89467 48.9433 2.38333 48.458 2.002 47.886C1.638 47.2967 1.456 46.6033 1.456 45.806C1.456 44.818 1.73333 43.9513 2.288 43.206C2.86 42.4607 3.70067 41.88 4.81 41.464C5.91933 41.048 7.28 40.84 8.892 40.84C11.3187 40.84 13.182 41.36 14.482 42.4C15.7993 43.4227 16.4407 44.8353 16.406 46.638H13.026C12.9567 45.6153 12.5233 44.8787 11.726 44.428C10.946 43.9773 9.958 43.752 8.762 43.752C7.65267 43.752 6.734 43.9167 6.006 44.246C5.29533 44.5753 4.94 45.1387 4.94 45.936C4.94 46.248 5.02667 46.5253 5.2 46.768C5.37333 46.9933 5.668 47.1927 6.084 47.366C6.5 47.5393 7.06333 47.704 7.774 47.86C8.48467 48.016 9.36867 48.172 10.426 48.328C11.414 48.4667 12.3067 48.6573 13.104 48.9C13.9187 49.1253 14.612 49.4287 15.184 49.81C15.7733 50.174 16.224 50.642 16.536 51.214C16.848 51.786 17.004 52.488 17.004 53.32C17.004 54.3427 16.7353 55.2353 16.198 55.998C15.678 56.7433 14.8633 57.324 13.754 57.74C12.662 58.156 11.2407 58.364 9.49 58.364C8.242 58.364 7.14133 58.234 6.188 57.974C5.23467 57.6967 4.41133 57.3327 3.718 56.882C3.02467 56.4313 2.46133 55.9373 2.028 55.4C1.59467 54.8627 1.28267 54.3253 1.092 53.788C0.918667 53.2507 0.849333 52.7653 0.884 52.332ZM18.7027 45.078H28.7387V47.704H18.7027V45.078ZM22.0307 41.542H25.4107V58H22.0307V41.542ZM38.3264 58.312C36.6971 58.312 35.2584 58.052 34.0104 57.532C32.7798 57.012 31.8178 56.258 31.1244 55.27C30.4311 54.2647 30.0844 53.034 30.0844 51.578C30.0844 50.122 30.4311 48.8913 31.1244 47.886C31.8178 46.8633 32.7798 46.092 34.0104 45.572C35.2584 45.052 36.6971 44.792 38.3264 44.792C39.9558 44.792 41.3771 45.052 42.5904 45.572C43.8211 46.092 44.7831 46.8633 45.4764 47.886C46.1698 48.8913 46.5164 50.122 46.5164 51.578C46.5164 53.034 46.1698 54.2647 45.4764 55.27C44.7831 56.258 43.8211 57.012 42.5904 57.532C41.3771 58.052 39.9558 58.312 38.3264 58.312ZM38.3264 55.712C39.2278 55.712 40.0338 55.556 40.7444 55.244C41.4724 54.9147 42.0444 54.4467 42.4604 53.84C42.8764 53.216 43.0844 52.462 43.0844 51.578C43.0844 50.694 42.8764 49.94 42.4604 49.316C42.0444 48.6747 41.4811 48.1893 40.7704 47.86C40.0598 47.5307 39.2451 47.366 38.3264 47.366C37.4251 47.366 36.6104 47.5307 35.8824 47.86C35.1544 48.1893 34.5738 48.666 34.1404 49.29C33.7244 49.914 33.5164 50.6767 33.5164 51.578C33.5164 52.462 33.7244 53.216 34.1404 53.84C34.5564 54.4467 35.1284 54.9147 35.8564 55.244C36.5844 55.556 37.4078 55.712 38.3264 55.712ZM49.0151 45.078H52.3951V58H49.0151V45.078ZM58.4011 44.792C59.1984 44.792 59.9351 44.896 60.6111 45.104C61.2871 45.312 61.8764 45.6327 62.3791 46.066C62.8817 46.4993 63.2717 47.054 63.5491 47.73C63.8264 48.3887 63.9651 49.1773 63.9651 50.096V58H60.5851V50.694C60.5851 49.602 60.3164 48.8047 59.7791 48.302C59.2591 47.782 58.4011 47.522 57.2051 47.522C56.3037 47.522 55.4891 47.6953 54.7611 48.042C54.0331 48.3887 53.4437 48.8307 52.9931 49.368C52.5424 49.888 52.2824 50.434 52.2131 51.006L52.1871 49.68C52.2737 49.0733 52.4731 48.484 52.7851 47.912C53.0971 47.34 53.5131 46.82 54.0331 46.352C54.5704 45.8667 55.2031 45.4853 55.9311 45.208C56.6591 44.9307 57.4824 44.792 58.4011 44.792ZM78.8204 53.71H82.0964C81.9578 54.594 81.5851 55.3827 80.9784 56.076C80.3891 56.7693 79.5831 57.3153 78.5604 57.714C77.5378 58.1127 76.2898 58.312 74.8164 58.312C73.1698 58.312 71.7138 58.052 70.4484 57.532C69.1831 56.9947 68.1951 56.2233 67.4844 55.218C66.7738 54.2127 66.4184 52.9993 66.4184 51.578C66.4184 50.1567 66.7651 48.9433 67.4584 47.938C68.1518 46.9153 69.1138 46.1353 70.3444 45.598C71.5924 45.0607 73.0484 44.792 74.7124 44.792C76.4111 44.792 77.8238 45.0607 78.9504 45.598C80.0771 46.1353 80.9091 46.95 81.4464 48.042C82.0011 49.1167 82.2351 50.4947 82.1484 52.176H69.8244C69.9111 52.8347 70.1538 53.4327 70.5524 53.97C70.9684 54.5073 71.5231 54.932 72.2164 55.244C72.9271 55.556 73.7678 55.712 74.7384 55.712C75.8131 55.712 76.7058 55.53 77.4164 55.166C78.1444 54.7847 78.6124 54.2993 78.8204 53.71ZM74.5564 47.366C73.3084 47.366 72.2944 47.6433 71.5144 48.198C70.7344 48.7353 70.2318 49.4027 70.0064 50.2H78.7944C78.7078 49.3333 78.2918 48.6487 77.5464 48.146C76.8184 47.626 75.8218 47.366 74.5564 47.366ZM94.367 52.54V49.784H102.063C102.982 49.784 103.71 49.5413 104.247 49.056C104.784 48.5533 105.053 47.86 105.053 46.976C105.053 46.0573 104.784 45.3553 104.247 44.87C103.71 44.3847 102.982 44.142 102.063 44.142H94.783V58H91.325V41.178H101.751C102.687 41.178 103.562 41.2907 104.377 41.516C105.209 41.7413 105.928 42.088 106.535 42.556C107.159 43.024 107.644 43.622 107.991 44.35C108.338 45.078 108.511 45.9533 108.511 46.976C108.511 47.9813 108.338 48.8393 107.991 49.55C107.644 50.2607 107.159 50.8413 106.535 51.292C105.928 51.7253 105.209 52.046 104.377 52.254C103.562 52.4447 102.687 52.54 101.751 52.54H94.367ZM115.198 39.41V42.374H111.272V39.41H115.198ZM111.532 45.078H114.912V58H111.532V45.078ZM131.255 47.652L120.985 56.44L120.621 55.452H131.437V58H118.203V55.452L128.473 46.664L128.837 47.652H118.203V45.078H131.255V47.652ZM147.429 47.652L137.159 56.44L136.795 55.452H147.611V58H134.377V55.452L144.647 46.664L145.011 47.652H134.377V45.078H147.429V47.652ZM156.743 58.286C155.46 58.286 154.29 58.0087 153.233 57.454C152.193 56.882 151.361 56.0933 150.737 55.088C150.13 54.0653 149.827 52.8867 149.827 51.552C149.827 50.1827 150.139 48.9953 150.763 47.99C151.387 46.9847 152.227 46.2047 153.285 45.65C154.359 45.078 155.573 44.792 156.925 44.792C158.415 44.792 159.611 45.0953 160.513 45.702C161.431 46.2913 162.099 47.0973 162.515 48.12C162.931 49.1427 163.139 50.2867 163.139 51.552C163.139 52.3147 163.017 53.0947 162.775 53.892C162.532 54.672 162.159 55.4 161.657 56.076C161.154 56.7347 160.495 57.272 159.681 57.688C158.866 58.0867 157.887 58.286 156.743 58.286ZM157.835 55.686C158.857 55.686 159.741 55.5127 160.487 55.166C161.232 54.8193 161.804 54.334 162.203 53.71C162.601 53.086 162.801 52.3667 162.801 51.552C162.801 50.668 162.593 49.9227 162.177 49.316C161.778 48.692 161.206 48.224 160.461 47.912C159.733 47.5827 158.857 47.418 157.835 47.418C156.396 47.418 155.278 47.7993 154.481 48.562C153.683 49.3073 153.285 50.304 153.285 51.552C153.285 52.384 153.475 53.112 153.857 53.736C154.238 54.3427 154.767 54.8193 155.443 55.166C156.136 55.5127 156.933 55.686 157.835 55.686ZM162.801 45.078H166.181V58H163.035C163.035 58 163.009 57.8353 162.957 57.506C162.922 57.1593 162.887 56.726 162.853 56.206C162.818 55.686 162.801 55.1747 162.801 54.672V45.078ZM195.583 51.942C195.427 53.294 194.951 54.4467 194.153 55.4C193.356 56.3533 192.273 57.0813 190.903 57.584C189.534 58.0867 187.905 58.338 186.015 58.338C184.438 58.338 182.991 58.156 181.673 57.792C180.373 57.428 179.247 56.882 178.293 56.154C177.357 55.426 176.629 54.5247 176.109 53.45C175.589 52.358 175.329 51.084 175.329 49.628C175.329 48.172 175.589 46.898 176.109 45.806C176.629 44.714 177.357 43.804 178.293 43.076C179.247 42.3307 180.373 41.776 181.673 41.412C182.991 41.0307 184.438 40.84 186.015 40.84C187.905 40.84 189.534 41.1 190.903 41.62C192.29 42.14 193.382 42.8853 194.179 43.856C194.977 44.8093 195.445 45.9707 195.583 47.34H192.151C191.926 46.612 191.545 45.988 191.007 45.468C190.487 44.9307 189.811 44.5233 188.979 44.246C188.147 43.9687 187.159 43.83 186.015 43.83C184.594 43.83 183.346 44.0553 182.271 44.506C181.197 44.9393 180.365 45.5893 179.775 46.456C179.186 47.3053 178.891 48.3627 178.891 49.628C178.891 50.876 179.186 51.9247 179.775 52.774C180.365 53.6233 181.197 54.2733 182.271 54.724C183.346 55.1573 184.594 55.374 186.015 55.374C187.159 55.374 188.139 55.2353 188.953 54.958C189.785 54.6807 190.461 54.282 190.981 53.762C191.519 53.242 191.909 52.6353 192.151 51.942H195.583ZM206.133 58.312C204.504 58.312 203.065 58.052 201.817 57.532C200.586 57.012 199.624 56.258 198.931 55.27C198.238 54.2647 197.891 53.034 197.891 51.578C197.891 50.122 198.238 48.8913 198.931 47.886C199.624 46.8633 200.586 46.092 201.817 45.572C203.065 45.052 204.504 44.792 206.133 44.792C207.762 44.792 209.184 45.052 210.397 45.572C211.628 46.092 212.59 46.8633 213.283 47.886C213.976 48.8913 214.323 50.122 214.323 51.578C214.323 53.034 213.976 54.2647 213.283 55.27C212.59 56.258 211.628 57.012 210.397 57.532C209.184 58.052 207.762 58.312 206.133 58.312ZM206.133 55.712C207.034 55.712 207.84 55.556 208.551 55.244C209.279 54.9147 209.851 54.4467 210.267 53.84C210.683 53.216 210.891 52.462 210.891 51.578C210.891 50.694 210.683 49.94 210.267 49.316C209.851 48.6747 209.288 48.1893 208.577 47.86C207.866 47.5307 207.052 47.366 206.133 47.366C205.232 47.366 204.417 47.5307 203.689 47.86C202.961 48.1893 202.38 48.666 201.947 49.29C201.531 49.914 201.323 50.6767 201.323 51.578C201.323 52.462 201.531 53.216 201.947 53.84C202.363 54.4467 202.935 54.9147 203.663 55.244C204.391 55.556 205.214 55.712 206.133 55.712ZM220.494 55.036V58H216.568V55.036H220.494Z" fill="white"/>
</svg>
